<svg aria-hidden="true" style="position: absolute; width: 0; height: 0; overflow: hidden;" version="1.1" xmlns="http://www.w3.org/2000/svg" xmlns:xlink="http://www.w3.org/1999/xlink">
<defs>
<symbol id="icon-close" viewBox="0 0 20 20">
<path d="M10 8.586l-7.071-7.071-1.414 1.414 7.071 7.071-7.071 7.071 1.414 1.414 7.071-7.071 7.071 7.071 1.414-1.414-7.071-7.071 7.071-7.071-1.414-1.414-7.071 7.071z"></path>
</symbol>
<symbol id="icon-menu" viewBox="0 0 24 24">
<path d="M3 13h18c0.552 0 1-0.448 1-1s-0.448-1-1-1h-18c-0.552 0-1 0.448-1 1s0.448 1 1 1zM3 7h18c0.552 0 1-0.448 1-1s-0.448-1-1-1h-18c-0.552 0-1 0.448-1 1s0.448 1 1 1zM3 19h18c0.552 0 1-0.448 1-1s-0.448-1-1-1h-18c-0.552 0-1 0.448-1 1s0.448 1 1 1z"></path>
</symbol>
<symbol id="icon-brand-recognition" viewBox="0 0 32 32">
<path fill="#2bd0d0" style="fill: var(--color1, #2bd0d0)" d="M29.125 9.375c0.518 0 0.938 0.419 0.938 0.938v19.812h1c0.518 0 0.938 0.42 0.938 0.938s-0.42 0.938-0.938 0.938h-30.125c-0.518 0-0.938-0.42-0.938-0.938s0.42-0.938 0.938-0.938h1v-10.437c0-0.518 0.419-0.938 0.938-0.938h3.749c0.518 0 0.938 0.42 0.938 0.938v10.438h1.875v-6.688c0-0.517 0.419-0.937 0.938-0.937h3.75c0.518 0 0.938 0.42 0.938 0.938v6.688h1.875v-14.19c0-0.518 0.419-0.938 0.938-0.938h3.75c0.518 0 0.938 0.42 0.938 0.938v14.187h1.875v-19.811c0-0.518 0.419-0.938 0.938-0.938zM28.187 11.25h-1.874v18.874h1.874v-18.874zM20.687 16.874h-1.874v13.25h1.874v-13.25zM13.187 24.375h-1.874v5.75h1.874v-5.749zM5.688 20.624h-1.875v9.5h1.874v-9.499zM27.25 0c1.553 0.002 2.811 1.26 2.813 2.813v0c-0.002 1.552-1.26 2.81-2.813 2.812h-0c-0.576 0-1.111-0.174-1.558-0.472l-3.258 2.444c0.081 0.25 0.127 0.539 0.127 0.838 0 1.554-1.258 2.813-2.811 2.816h-0c-0 0-0.001 0-0.001 0-0.44 0-0.856-0.102-1.226-0.283l0.017 0.007-3.751 3.75c0.176 0.367 0.275 0.778 0.275 1.212-0.002 1.552-1.26 2.81-2.812 2.812h-0c-1.553-0.003-2.811-1.262-2.811-2.816 0-0.121 0.008-0.24 0.022-0.357l-0.001 0.014-2.76-1.379c-0.504 0.488-1.191 0.789-1.949 0.789-0 0-0.001 0-0.001 0h0c-1.552-0.002-2.81-1.26-2.812-2.813v-0c0.002-1.552 1.26-2.81 2.812-2.812h0c1.553 0.003 2.811 1.262 2.811 2.816 0 0.121-0.008 0.24-0.022 0.357l0.001-0.014 2.76 1.38c0.504-0.489 1.192-0.79 1.95-0.79 0.44 0 0.857 0.102 1.228 0.283l-0.017-0.007 3.751-3.75c-0.174-0.354-0.275-0.77-0.275-1.21 0-0.001 0-0.002 0-0.002v0c0.002-1.552 1.26-2.811 2.812-2.813h0c0.576 0 1.112 0.174 1.558 0.472l3.258-2.443c-0.081-0.25-0.127-0.539-0.127-0.838 0-1.554 1.258-2.813 2.811-2.816h0zM12.25 15c-0.517 0-0.937 0.421-0.937 0.938s0.42 0.938 0.937 0.938c0.518 0 0.938-0.421 0.938-0.938s-0.42-0.938-0.938-0.938zM4.75 11.25c-0.518 0-0.938 0.421-0.938 0.938s0.42 0.938 0.937 0.938c0.518 0 0.938-0.421 0.938-0.938s-0.42-0.937-0.937-0.937zM19.75 7.5c-0.518 0-0.938 0.421-0.938 0.938s0.42 0.938 0.938 0.938c0.517 0 0.937-0.421 0.937-0.938s-0.42-0.938-0.938-0.938zM27.25 1.875c-0.518 0-0.938 0.421-0.938 0.938s0.42 0.937 0.938 0.937c0.517 0 0.937-0.42 0.937-0.937s-0.42-0.938-0.938-0.938z"></path>
</symbol>
<symbol id="icon-detailed-records" viewBox="0 0 32 32">
<path fill="#2bd0d0" style="fill: var(--color1, #2bd0d0)" d="M15.974 0c8.808 0 15.975 7.166 15.975 15.974s-7.166 15.975-15.975 15.975c-8.808 0-15.974-7.166-15.974-15.975s7.166-15.974 15.974-15.974zM22.218 28.463c-3.89-1.922-8.597-1.922-12.487 0 1.817 0.938 3.966 1.488 6.243 1.49h0.001c2.278-0.002 4.427-0.552 6.322-1.526l-0.078 0.036zM16.974 2.047v2.945h-1.998v-2.944c-2.896 0.21-5.508 1.278-7.623 2.947l0.029-0.022 2.238 2.238-1.412 1.412-2.31-2.31c-1.954 2.032-3.299 4.662-3.733 7.59l-0.009 0.076h3.834v1.998h-3.994c0 4.644 2.286 8.754 5.782 11.298 4.974-2.971 11.419-2.971 16.392 0 3.496-2.543 5.782-6.654 5.782-11.298h-3.994v-1.997h3.834c-0.443-3.004-1.788-5.634-3.747-7.67l0.004 0.005-2.31 2.31-1.412-1.412 2.238-2.238c-2.085-1.648-4.698-2.715-7.548-2.923l-0.045-0.003zM15.024 8.681c0.266-0.827 1.636-0.827 1.902 0 0.508 1.582 3.043 9.564 3.043 11.288-0.002 2.205-1.789 3.992-3.994 3.994h-0c-2.205-0.002-3.991-1.789-3.994-3.993v-0c0-1.724 2.536-9.706 3.043-11.288zM15.974 12.334c-0.986 3.238-1.997 6.818-1.997 7.634 0.002 1.102 0.895 1.995 1.997 1.997h0c1.102-0.001 1.996-0.894 1.998-1.997v-0c0-0.816-1.010-4.397-1.998-7.634z"></path>
</symbol>
<symbol id="icon-facebook" viewBox="0 0 32 32">
<path fill="#fff" style="fill: var(--color2, #fff)" d="M30.233 0h-28.467c-0.976 0-1.767 0.791-1.767 1.767v28.468c0 0.975 0.791 1.765 1.767 1.765h15.327v-12.392h-4.171v-4.829h4.171v-3.561c0-4.133 2.524-6.384 6.212-6.384 1.767 0 3.284 0.132 3.727 0.191v4.32l-2.557 0.001c-2.005 0-2.393 0.953-2.393 2.351v3.084h4.783l-0.623 4.829h-4.16v12.391h8.155c0.973 0 1.764-0.791 1.764-1.767v-28.467c0-0.976-0.791-1.767-1.767-1.767z"></path>
</symbol>
<symbol id="icon-fully-customizable" viewBox="0 0 32 32">
<path fill="#2bd0d0" style="fill: var(--color1, #2bd0d0)" d="M31.072 4.013c-0.096-0.059-0.213-0.095-0.338-0.095-0.102 0-0.198 0.023-0.284 0.065l0.004-0.002-5.083 2.394c-1.758 0.842-2.987 2.539-3.151 4.538l-0.001 0.020-0.131 1.624-2.633 4.374v-1.867c0-0.007-0.004-0.011-0.004-0.018-0.001-0.068-0.012-0.133-0.032-0.194l0.001 0.005-1.225-3.676 2.502-5.003c0.043-0.085 0.068-0.184 0.068-0.29 0-0.15-0.050-0.288-0.135-0.398l0.001 0.002-3.933-5.245c-0.126-0.152-0.314-0.247-0.524-0.247s-0.399 0.096-0.523 0.246l-0.001 0.001-3.934 5.246c-0.082 0.108-0.131 0.245-0.131 0.394 0 0.107 0.026 0.208 0.071 0.297l-0.002-0.004 2.502 5.002-1.225 3.676c-0.019 0.056-0.030 0.121-0.031 0.189v2.635l-4.085-6.199c-0.005-0.007-0.013-0.011-0.017-0.017-0.040-0.055-0.086-0.102-0.139-0.142l-0.002-0.001c-0.013-0.009-0.024-0.020-0.037-0.028s-0.015-0.013-0.023-0.018l-2.403-1.39-0.998-1.514-1.442-2.191c-0.119-0.178-0.319-0.295-0.547-0.295-0.078 0-0.153 0.014-0.222 0.039l0.005-0.001-2.551 0.895c-0.256 0.093-0.436 0.334-0.436 0.617 0 0.135 0.041 0.26 0.11 0.364l-0.002-0.002 1.803 2.738 0.995 1.513 0.328 2.758c0.002 0.011 0.004 0.020 0.007 0.028l-0-0.002c0.003 0.013 0.006 0.027 0.010 0.041 0.016 0.074 0.043 0.14 0.079 0.2l-0.002-0.003c0.005 0.007 0.005 0.015 0.009 0.022s9.749 14.777 9.797 14.817c0.479 1.233 1.656 2.091 3.034 2.091 0 0 0.001 0 0.001 0h-0c0.267 0 0.533-0.033 0.793-0.097 0.862-0.216 1.573-0.754 2.011-1.476l0.008-0.014 8.72-14.465 1.377-0.871c0.726-0.467 1.321-1.075 1.759-1.79l0.014-0.024c0.498-0.812 0.793-1.794 0.793-2.846 0-0.090-0.002-0.179-0.006-0.267l0 0.012-0.255-5.613c-0.008-0.226-0.129-0.422-0.309-0.534l-0.003-0.002zM26.324 15.696l-1.015 1.685-3.369-2.032 1.016-1.685 3.368 2.032zM14.21 25.631v-9.911h3.933v3.387l-3.933 6.524zM15.339 11.787h1.677l0.873 2.622h-3.424l0.873-2.622zM16.177 7.197c-0.362 0-0.655-0.293-0.655-0.655s0.293-0.655 0.655-0.655v0c0.362 0 0.655 0.293 0.655 0.655s-0.293 0.655-0.655 0.655v0zM16.177 1.734l3.167 4.221-2.26 4.52h-0.251v-2.087c0.77-0.278 1.311-1.003 1.311-1.854 0-1.086-0.881-1.967-1.967-1.967s-1.967 0.88-1.967 1.967c0 0.851 0.541 1.576 1.298 1.85l0.014 0.004v2.087h-0.251l-2.26-4.52 3.167-4.221zM7.020 11.879l-0.193 0.127-2.414 1.591-0.222-1.858c-0.013-0.107-0.050-0.202-0.106-0.285l0.002 0.002-0.721-1.095 1.094-0.721 0.721 1.095c0.057 0.085 0.13 0.155 0.216 0.205l0.003 0.002 1.619 0.937zM2.939 7.328l0.8 1.215-1.095 0.721-0.983-1.488 1.278-0.448zM6.438 13.831l1.639-1.083 4.822 7.315v7.151l-8.103-12.3 1.643-1.083zM17.861 29.732c-0.35 0.574-0.973 0.951-1.684 0.951-1.086 0-1.967-0.881-1.967-1.967 0-0.375 0.105-0.726 0.288-1.025l-0.005 0.009 4.95-8.21h0.011v-0.018l1.808-2.999 1.685 1.017 1.687 1.013-6.773 11.229zM29.733 12.583c-0.345 0.563-0.798 1.027-1.335 1.372l-0.017 0.010-1.165 0.738-3.803-2.289 0.108-1.377c0.126-1.539 1.063-2.833 2.377-3.464l0.025-0.011 4.196-1.975 0.083 1.827c-0.020-0.002-0.044-0.004-0.068-0.004-0.046 0-0.090 0.005-0.133 0.014l0.004-0.001-1.588 0.393c-1.478 0.37-2.613 1.527-2.945 2.989l-0.005 0.027c-0.010 0.043-0.016 0.093-0.016 0.143 0 0.362 0.294 0.656 0.656 0.656 0.311 0 0.572-0.217 0.639-0.508l0.001-0.004c0.228-1.001 0.991-1.779 1.966-2.025l0.019-0.004 1.531-0.38 0.069 1.508c0.003 0.058 0.004 0.126 0.004 0.194 0 0.802-0.225 1.552-0.615 2.19l0.010-0.018z"></path>
</symbol>
<symbol id="icon-instagram" viewBox="0 0 32 32">
<path fill="#fff" style="fill: var(--color2, #fff)" d="M16 2.884c4.272 0 4.779 0.016 6.467 0.093 4.336 0.197 6.361 2.255 6.559 6.559 0.077 1.687 0.092 2.193 0.092 6.465 0 4.273-0.016 4.779-0.092 6.465-0.199 4.3-2.219 6.361-6.559 6.559-1.688 0.077-2.192 0.093-6.467 0.093-4.272 0-4.779-0.016-6.465-0.093-4.347-0.199-6.361-2.265-6.559-6.56-0.077-1.687-0.093-2.192-0.093-6.465 0-4.272 0.017-4.777 0.093-6.465 0.199-4.303 2.219-6.361 6.559-6.559 1.688-0.076 2.193-0.092 6.465-0.092zM16 0c-4.345 0-4.889 0.019-6.596 0.096-5.811 0.267-9.040 3.491-9.307 9.307-0.079 1.708-0.097 2.252-0.097 6.597s0.019 4.891 0.096 6.597c0.267 5.811 3.491 9.040 9.307 9.307 1.708 0.077 2.252 0.096 6.597 0.096s4.891-0.019 6.597-0.096c5.805-0.267 9.043-3.491 9.305-9.307 0.079-1.707 0.097-2.252 0.097-6.597s-0.019-4.889-0.096-6.596c-0.261-5.805-3.489-9.040-9.305-9.307-1.708-0.079-2.253-0.097-6.599-0.097zM16 7.784c-4.538 0-8.216 3.678-8.216 8.216s3.678 8.216 8.216 8.216v0c4.538 0 8.216-3.678 8.216-8.216s-3.678-8.216-8.216-8.216v0zM16 21.333c-2.946 0-5.333-2.388-5.333-5.333s2.388-5.333 5.333-5.333v0c2.946 0 5.333 2.388 5.333 5.333s-2.388 5.333-5.333 5.333v0zM24.541 5.54c-1.061 0-1.921 0.86-1.921 1.921s0.86 1.921 1.921 1.921v0c1.061 0 1.921-0.86 1.921-1.921s-0.86-1.921-1.921-1.921v0z"></path>
</symbol>
<symbol id="icon-pinterest" viewBox="0 0 32 32">
<path fill="#fff" style="fill: var(--color2, #fff)" d="M16 0c-8.836 0-16 7.163-16 16 0 6.779 4.217 12.568 10.169 14.899-0.14-1.265-0.267-3.207 0.056-4.588 0.291-1.249 1.876-7.953 1.876-7.953s-0.479-0.959-0.479-2.376c0-2.224 1.289-3.885 2.895-3.885 1.364 0 2.024 1.025 2.024 2.253 0 1.372-0.873 3.424-1.325 5.327-0.377 1.592 0.799 2.892 2.369 2.892 2.844 0 5.029-2.999 5.029-7.327 0-3.831-2.752-6.509-6.683-6.509-4.552 0-7.224 3.415-7.224 6.943 0 1.375 0.529 2.851 1.191 3.651 0.080 0.086 0.129 0.201 0.129 0.328 0 0.047-0.007 0.093-0.019 0.136l0.001-0.003-0.444 1.813c-0.071 0.293-0.232 0.356-0.536 0.215-1.999-0.931-3.248-3.852-3.248-6.199 0-5.047 3.667-9.683 10.572-9.683 5.551 0 9.864 3.956 9.864 9.241 0 5.515-3.476 9.952-8.303 9.952-1.621 0-3.145-0.841-3.667-1.837l-0.997 3.804c-0.361 1.391-1.336 3.133-1.989 4.195 1.499 0.463 3.089 0.713 4.739 0.713 8.836 0 16-7.164 16-16 0-8.837-7.164-16-16-16z"></path>
</symbol>
<symbol id="icon-twitter" viewBox="0 0 38 32">
<path fill="#fff" style="fill: var(--color2, #fff)" d="M38.4 4.091c-1.318 0.6-2.846 1.037-4.449 1.232l-0.076 0.008c1.63-0.986 2.855-2.501 3.448-4.303l0.016-0.056c-1.44 0.87-3.116 1.533-4.902 1.895l-0.101 0.017c-1.439-1.533-3.478-2.488-5.74-2.488-0.004 0-0.007 0-0.011 0h0.001c-5.086 0-8.824 4.746-7.675 9.672-6.562-0.338-12.335-3.457-16.205-8.19l-0.032-0.040c-0.671 1.135-1.067 2.502-1.067 3.961 0 2.722 1.379 5.122 3.476 6.539l0.028 0.018c-1.316-0.043-2.538-0.403-3.606-1.006l0.039 0.020c-0.086 3.65 2.53 7.064 6.318 7.824-0.621 0.175-1.333 0.276-2.070 0.276-0.527 0-1.041-0.052-1.539-0.15l0.050 0.008c1.037 3.155 3.927 5.405 7.352 5.47l0.008 0c-2.664 2.105-6.072 3.377-9.776 3.377-0.665 0-1.321-0.041-1.965-0.121l0.077 0.008c3.408 2.219 7.578 3.539 12.056 3.539 0.007 0 0.014 0 0.022 0h-0.001c14.627 0 22.891-12.354 22.392-23.434 1.548-1.128 2.852-2.479 3.895-4.022l0.036-0.057z"></path>
</symbol>
<symbol id="icon-logo" viewBox="0 0 117 32">
<path d="M16.209 7.692c-0.066-0.087-0.297-0.252-0.692-0.495s-0.89-0.495-1.484-0.758-1.242-0.495-1.945-0.692c-0.632-0.187-1.358-0.295-2.109-0.297h-0.001c-1.935 0-2.901 0.649-2.901 1.945 0 0.396 0.104 0.725 0.313 0.989s0.516 0.5 0.923 0.709c0.406 0.209 0.917 0.401 1.532 0.577l1.363 0.381 0.781 0.212c1.121 0.307 2.131 0.643 3.033 1.006s1.665 0.814 2.291 1.352c0.615 0.53 1.106 1.185 1.437 1.927l0.014 0.035c0.339 0.769 0.511 1.692 0.511 2.769 0 1.319-0.247 2.434-0.742 3.346-0.495 0.912-1.149 1.648-1.962 2.209-0.815 0.561-1.747 0.967-2.802 1.22s-2.143 0.379-3.264 0.379c-1.884-0.011-3.698-0.293-5.41-0.81l0.135 0.035c-0.857-0.252-1.687-0.555-2.489-0.907-0.857-0.376-1.588-0.783-2.275-1.251l0.048 0.031 2.374-4.715c0.087 0.11 0.373 0.319 0.857 0.626s1.082 0.616 1.797 0.923c0.714 0.307 1.511 0.582 2.39 0.824s1.769 0.363 2.671 0.363c1.912 0 2.868-0.582 2.868-1.747 0-0.439-0.143-0.802-0.429-1.088s-0.682-0.544-1.187-0.775c-0.392-0.183-0.876-0.367-1.373-0.52l-0.086-0.023-1.65-0.48-0.946-0.279c-1.077-0.33-2.011-0.687-2.802-1.072s-1.445-0.83-1.962-1.335c-0.495-0.48-0.887-1.063-1.143-1.714l-0.011-0.033c-0.253-0.659-0.379-1.428-0.379-2.308 0-1.232 0.231-2.319 0.692-3.264 0.463-0.948 1.096-1.745 1.867-2.381l0.012-0.010c0.778-0.636 1.695-1.137 2.695-1.451l0.058-0.016c1.043-0.33 2.148-0.495 3.313-0.495 0.813 0 1.616 0.078 2.407 0.231s1.55 0.352 2.275 0.593c0.725 0.242 1.401 0.517 2.027 0.824 0.627 0.307 1.204 0.616 1.732 0.923l-2.374 4.484zM38.923 24.242h-5.275v-9.726c0-1.121-0.22-1.945-0.659-2.473s-1.044-0.791-1.813-0.791c-0.308 0-0.643 0.072-1.006 0.214-0.404 0.165-0.752 0.376-1.062 0.632l0.007-0.005c-0.353 0.288-0.662 0.607-0.931 0.959l-0.010 0.014c-0.275 0.358-0.499 0.774-0.651 1.223l-0.009 0.030v9.924h-5.275v-24.068h5.275v9.66c0.62-1.010 1.473-1.821 2.489-2.373l0.035-0.017c1.043-0.561 2.191-0.841 3.445-0.841 1.165 0 2.104 0.204 2.819 0.61s1.264 0.923 1.648 1.55c0.384 0.626 0.643 1.329 0.775 2.11s0.198 1.544 0.198 2.291v11.078zM50.889 24.572c-1.473 0-2.786-0.242-3.94-0.725s-2.127-1.137-2.919-1.962c-0.767-0.798-1.377-1.753-1.777-2.811l-0.019-0.057c-0.387-1.005-0.611-2.167-0.611-3.382 0-0.011 0-0.021 0-0.032v0.002c0-1.187 0.204-2.324 0.611-3.412 0.419-1.115 1.029-2.071 1.799-2.871l-0.003 0.003c0.791-0.824 1.764-1.484 2.918-1.978s2.467-0.742 3.94-0.742c1.473 0 2.78 0.247 3.923 0.742s2.11 1.154 2.901 1.978c0.769 0.8 1.384 1.754 1.794 2.81l0.020 0.058c0.397 1.003 0.626 2.166 0.626 3.382 0 0.011-0 0.021-0 0.032v-0.002c0 0.009 0 0.020 0 0.030 0 1.215-0.224 2.377-0.633 3.449l0.022-0.066c-0.419 1.115-1.029 2.070-1.798 2.871l0.003-0.003c-0.791 0.824-1.765 1.478-2.919 1.962s-2.466 0.725-3.939 0.725zM47.030 15.604c0 1.362 0.363 2.456 1.088 3.281s1.648 1.236 2.769 1.236c0.011 0 0.024 0 0.037 0 0.537 0 1.046-0.122 1.5-0.339l-0.021 0.009c0.462-0.22 0.863-0.527 1.202-0.923 0.344-0.406 0.619-0.882 0.799-1.403l0.009-0.031c0.188-0.53 0.297-1.14 0.297-1.776 0-0.019-0-0.038-0-0.056l0 0.003c0-1.362-0.363-2.456-1.088-3.28s-1.638-1.236-2.736-1.236c-0.009-0-0.019-0-0.029-0-1.088 0-2.063 0.484-2.721 1.248l-0.004 0.005c-0.343 0.406-0.617 0.882-0.797 1.403l-0.009 0.031c-0.188 0.53-0.297 1.14-0.297 1.776 0 0.019 0 0.038 0 0.056l-0-0.003zM73.965 11.45c-1.275 0.022-2.429 0.231-3.462 0.626s-1.78 0.989-2.242 1.78v10.385h-5.275v-17.309h4.847v3.495c0.593-1.165 1.358-2.077 2.291-2.736s1.929-1 2.984-1.022h0.528c0.11 0 0.22 0.011 0.33 0.033v4.748zM87.612 23.319c-0.664 0.289-1.492 0.581-2.341 0.821l-0.148 0.036c-0.934 0.264-1.873 0.396-2.819 0.396-0.659 0-1.28-0.082-1.862-0.247-0.59-0.165-1.103-0.437-1.541-0.797l0.007 0.006c-0.439-0.363-0.785-0.841-1.038-1.434-0.254-0.593-0.38-1.308-0.38-2.143v-9.034h-2.209v-3.989h2.209v-5.506h5.275v5.506h3.528v3.989h-3.528v7.22c0 0.572 0.143 0.983 0.429 1.236s0.649 0.379 1.088 0.379c0.396 0 0.802-0.066 1.22-0.198s0.781-0.274 1.088-0.429l1.022 4.187zM89.82 0.175h5.275v17.903c0 1.319 0.561 1.978 1.681 1.978 0.264 0 0.555-0.039 0.874-0.115s0.611-0.192 0.874-0.346l0.692 3.956c-0.659 0.307-1.418 0.55-2.275 0.725s-1.659 0.264-2.407 0.264c-1.517 0-2.681-0.396-3.495-1.187s-1.22-1.935-1.22-3.429v-19.749zM100.929 26.847c0.44 0.154 0.852 0.264 1.236 0.33 0.31 0.059 0.669 0.095 1.035 0.099l0.004 0c0.638 0 1.133-0.22 1.484-0.659s0.671-1.232 0.956-2.374l-6.594-17.309h5.44l4.022 12.792 3.462-12.792h4.945l-6.594 20.111c-0.456 1.428-1.32 2.617-2.455 3.465l-0.018 0.013c-1.187 0.89-2.593 1.335-4.22 1.335-0.472-0.001-0.934-0.043-1.383-0.122l0.048 0.007c-0.519-0.092-0.978-0.224-1.417-0.396l0.049 0.017v-4.517z"></path>
</symbol>
<symbol id="icon-spinner" viewBox="0 0 32 32">
<path d="M16 0c-8.711 0-15.796 6.961-15.995 15.624 0.185-7.558 5.932-13.624 12.995-13.624 7.18 0 13 6.268 13 14 0 1.657 1.343 3 3 3s3-1.343 3-3c0-8.837-7.163-16-16-16zM16 32c8.711 0 15.796-6.961 15.995-15.624-0.185 7.558-5.932 13.624-12.995 13.624-7.18 0-13-6.268-13-14 0-1.657-1.343-3-3-3s-3 1.343-3 3c0 8.837 7.163 16 16 16z"></path>
</symbol>
</defs>
</svg>
